# xmcd
#
# Track frame offsets:
# 150
# 14122
# 24115
# 37911
# 50667
# 65211
# 80051
# 94072
# 108116
# 122507
# 136382
# 151105
# 164982
# 178630
# 192399
# 205326
# 220008
# 233082
# 246862
# 259130
#
# Disc length: 3657 seconds
#
# Revision: 1
# Processed by: cddbd v1.5.1PL0 Copyright (c) Steve Scherf et al.
# Submitted via: CedeCatalogueitor 2.6.0.4 http://personales.ya.com/cdcatalogueitor
#
DISCID=1b0e4714
DTITLE=PAQUITA RICO - EL DISCO DE ORO
DYEAR=2000
DGENRE=FLAMENCO
TTITLE0=¡Ay, Cartujano!
TTITLE1=¡Ay, Con El Ay!
TTITLE2=Concha Molina
TTITLE3=Corazon De España
TTITLE4=Dime Que Mis Ojos
TTITLE5=Donde Está Mi Caminante
TTITLE6=Es Mio
TTITLE7=Faraón Cambalachero
TTITLE8=La Camisera
TTITLE9=La Caoba
TTITLE10=La De La Cruz Brillantes
TTITLE11=La Honrá
TTITLE12=La Rosa Del Alba
TTITLE13=Lola Triana
TTITLE14=Los Pretendientes
TTITLE15=Me Da Igual
TTITLE16=Niña Rosa
TTITLE17=Rosario De Penas
TTITLE18=Sevillanas Del Volapie
TTITLE19=Vuelve En Tu Sentio
EXTD=
EXTT0=
EXTT1=
EXTT2=
EXTT3=
EXTT4=
EXTT5=
EXTT6=
EXTT7=
EXTT8=
EXTT9=
EXTT10=
EXTT11=
EXTT12=
EXTT13=
EXTT14=
EXTT15=
EXTT16=
EXTT17=
EXTT18=
EXTT19=
PLAYORDER=
